<svg width="6122" height="1146" viewBox="0 0 6122 1146" fill="none" xmlns="http://www.w3.org/2000/svg">
<path d="M492.682 392.045L402.341 417.614C396.659 402.557 388.278 387.926 377.199 373.722C366.403 359.233 351.631 347.301 332.881 337.926C314.131 328.551 290.125 323.864 260.864 323.864C220.807 323.864 187.426 333.097 160.722 351.562C134.301 369.744 121.091 392.898 121.091 421.023C121.091 446.023 130.182 465.767 148.364 480.256C166.545 494.744 194.955 506.818 233.591 516.477L330.75 540.341C389.273 554.545 432.881 576.278 461.574 605.54C490.267 634.517 504.614 671.875 504.614 717.614C504.614 755.114 493.818 788.636 472.227 818.182C450.92 847.727 421.091 871.023 382.739 888.068C344.386 905.114 299.784 913.636 248.932 913.636C182.17 913.636 126.915 899.148 83.1648 870.17C39.4148 841.193 11.7159 798.864 0.0681843 743.182L95.5227 719.318C104.614 754.545 121.801 780.966 147.085 798.58C172.653 816.193 206.034 825 247.227 825C294.102 825 331.318 815.057 358.875 795.17C386.716 775 400.636 750.852 400.636 722.727C400.636 700 392.682 680.966 376.773 665.625C360.864 650 336.432 638.352 303.477 630.682L194.386 605.114C134.443 590.909 90.4091 568.892 62.2841 539.062C34.4432 508.949 20.5227 471.307 20.5227 426.136C20.5227 389.205 30.892 356.534 51.6307 328.125C72.6534 299.716 101.205 277.415 137.284 261.222C173.648 245.028 214.841 236.932 260.864 236.932C325.636 236.932 376.489 251.136 413.42 279.545C450.636 307.955 477.057 345.455 492.682 392.045ZM655.999 900V245.455H756.567V900H655.999ZM707.135 136.364C687.533 136.364 670.629 129.687 656.425 116.335C642.504 102.983 635.544 86.9318 635.544 68.1818C635.544 49.4318 642.504 33.3807 656.425 20.0284C670.629 6.67613 687.533 0 707.135 0C726.737 0 743.499 6.67613 757.419 20.0284C771.624 33.3807 778.726 49.4318 778.726 68.1818C778.726 86.9318 771.624 102.983 757.419 116.335C743.499 129.687 726.737 136.364 707.135 136.364ZM940.764 900V245.455H1037.92V347.727H1046.45C1060.08 312.784 1082.1 285.653 1112.5 266.335C1142.89 246.733 1179.4 236.932 1222.01 236.932C1265.2 236.932 1301.13 246.733 1329.83 266.335C1358.8 285.653 1381.39 312.784 1397.58 347.727H1404.4C1421.16 313.92 1446.3 287.074 1479.83 267.188C1513.35 247.017 1553.55 236.932 1600.42 236.932C1658.95 236.932 1706.82 255.256 1744.03 291.903C1781.25 328.267 1799.86 384.943 1799.86 461.932V900H1699.29V461.932C1699.29 413.636 1686.08 379.119 1659.66 358.381C1633.24 337.642 1602.13 327.273 1566.33 327.273C1520.31 327.273 1484.66 341.193 1459.37 369.034C1434.09 396.591 1421.45 431.534 1421.45 473.864V900H1319.17V451.705C1319.17 414.489 1307.1 384.517 1282.95 361.79C1258.8 338.778 1227.7 327.273 1189.63 327.273C1163.49 327.273 1139.06 334.233 1116.33 348.153C1093.89 362.074 1075.71 381.392 1061.79 406.108C1048.15 430.54 1041.33 458.807 1041.33 490.909V900H940.764ZM1983.73 1145.45V245.455H2080.89V349.432H2092.82C2100.21 338.068 2110.44 323.58 2123.51 305.966C2136.86 288.068 2155.89 272.159 2180.61 258.239C2205.61 244.034 2239.41 236.932 2282.03 236.932C2337.14 236.932 2385.72 250.71 2427.77 278.267C2469.81 305.824 2502.63 344.886 2526.2 395.455C2549.78 446.023 2561.57 505.682 2561.57 574.432C2561.57 643.75 2549.78 703.835 2526.2 754.688C2502.63 805.256 2469.95 844.46 2428.19 872.301C2386.43 899.858 2338.28 913.636 2283.73 913.636C2241.69 913.636 2208.02 906.676 2182.74 892.756C2157.45 878.551 2137.99 862.5 2124.36 844.602C2110.72 826.42 2100.21 811.364 2092.82 799.432H2084.3V1145.45H1983.73ZM2082.6 572.727C2082.6 622.159 2089.84 665.767 2104.33 703.551C2118.82 741.051 2139.98 770.455 2167.82 791.761C2195.66 812.784 2229.76 823.295 2270.1 823.295C2312.14 823.295 2347.23 812.216 2375.35 790.057C2403.76 767.614 2425.07 737.5 2439.27 699.716C2453.76 661.648 2461.01 619.318 2461.01 572.727C2461.01 526.705 2453.9 485.227 2439.7 448.295C2425.78 411.08 2404.61 381.676 2376.2 360.085C2348.08 338.21 2312.71 327.273 2270.1 327.273C2229.19 327.273 2194.81 337.642 2166.97 358.381C2139.13 378.835 2118.11 407.528 2103.9 444.46C2089.7 481.108 2082.6 523.864 2082.6 572.727ZM2815.55 27.2727V900H2714.98V27.2727H2815.55ZM3274.18 913.636C3211.11 913.636 3156.71 899.716 3110.97 871.875C3065.52 843.75 3030.43 804.545 3005.71 754.261C2981.28 703.693 2969.07 644.886 2969.07 577.841C2969.07 510.795 2981.28 451.705 3005.71 400.568C3030.43 349.148 3064.81 309.091 3108.84 280.398C3153.16 251.42 3204.86 236.932 3263.95 236.932C3298.04 236.932 3331.71 242.614 3364.95 253.977C3398.19 265.341 3428.44 283.807 3455.71 309.375C3482.99 334.659 3504.72 368.182 3520.91 409.943C3537.11 451.705 3545.2 503.125 3545.2 564.205V606.818H3040.66V519.886H3442.93C3442.93 482.955 3435.54 450 3420.77 421.023C3406.28 392.045 3385.54 369.176 3358.56 352.415C3331.85 335.653 3300.32 327.273 3263.95 327.273C3223.9 327.273 3189.24 337.216 3159.98 357.102C3131 376.705 3108.7 402.273 3093.07 433.807C3077.45 465.341 3069.63 499.148 3069.63 535.227V593.182C3069.63 642.614 3078.16 684.517 3095.2 718.892C3112.53 752.983 3136.54 778.977 3167.22 796.875C3197.9 814.489 3233.56 823.295 3274.18 823.295C3300.6 823.295 3324.46 819.602 3345.77 812.216C3367.36 804.545 3385.97 793.182 3401.6 778.125C3417.22 762.784 3429.29 743.75 3437.82 721.023L3534.98 748.295C3524.75 781.25 3507.56 810.227 3483.41 835.227C3459.27 859.943 3429.44 879.261 3393.92 893.182C3358.41 906.818 3318.5 913.636 3274.18 913.636ZM3681.99 900V27.2727H4026.31C4092.5 27.2727 4148.9 39.9148 4195.49 65.1989C4242.08 90.1989 4277.59 125 4302.02 169.602C4326.74 213.92 4339.1 265.057 4339.1 323.011C4339.1 380.966 4326.6 432.102 4301.6 476.42C4276.6 520.739 4240.37 555.256 4192.93 579.972C4145.77 604.687 4088.67 617.045 4021.62 617.045H3802.16V469.176H3991.79C4027.31 469.176 4056.57 463.068 4079.58 450.852C4102.87 438.352 4120.2 421.165 4131.57 399.29C4143.21 377.131 4149.04 351.705 4149.04 323.011C4149.04 294.034 4143.21 268.75 4131.57 247.159C4120.2 225.284 4102.87 208.381 4079.58 196.449C4056.28 184.233 4026.74 178.125 3990.94 178.125H3866.51V900H3681.99ZM4637.07 27.2727V900H4455.54V27.2727H4637.07ZM5080.79 912.784C5013.46 912.784 4955.5 899.148 4906.92 871.875C4858.63 844.318 4821.41 805.398 4795.27 755.114C4769.14 704.545 4756.07 644.744 4756.07 575.71C4756.07 508.381 4769.14 449.29 4795.27 398.438C4821.41 347.585 4858.2 307.955 4905.64 279.545C4953.37 251.136 5009.34 236.932 5073.54 236.932C5116.72 236.932 5156.92 243.892 5194.14 257.812C5231.64 271.449 5264.31 292.045 5292.15 319.602C5320.27 347.159 5342.15 381.818 5357.77 423.58C5373.4 465.057 5381.21 513.636 5381.21 569.318V619.176H4828.51V506.676H5210.33C5210.33 480.54 5204.65 457.386 5193.29 437.216C5181.92 417.045 5166.15 401.278 5145.98 389.915C5126.1 378.267 5102.94 372.443 5076.52 372.443C5048.97 372.443 5024.54 378.835 5003.23 391.619C4982.21 404.119 4965.73 421.023 4953.8 442.33C4941.87 463.352 4935.76 486.79 4935.47 512.642V619.602C4935.47 651.989 4941.44 679.972 4953.37 703.551C4965.59 727.131 4982.77 745.312 5004.93 758.097C5027.09 770.881 5053.37 777.273 5083.77 777.273C5103.94 777.273 5122.4 774.432 5139.17 768.75C5155.93 763.068 5170.27 754.545 5182.21 743.182C5194.14 731.818 5203.23 717.898 5209.48 701.42L5377.38 712.5C5368.85 752.841 5351.38 788.068 5324.96 818.182C5298.83 848.011 5265.02 871.307 5223.54 888.068C5182.35 904.545 5134.76 912.784 5080.79 912.784ZM5664.17 711.648L5664.59 493.892H5691.01L5900.67 245.455H6109.05L5827.38 574.432H5784.34L5664.17 711.648ZM5499.68 900V27.2727H5681.21V900H5499.68ZM5908.77 900L5716.15 614.915L5837.18 486.648L6121.41 900H5908.77Z" fill="white"/>
</svg>
